<svg xmlns="http://www.w3.org/2000/svg" width="30.015" height="23.73" viewBox="0 0 30.015 23.73"><defs><style>.a{fill:none;stroke:#ff6f3d;stroke-miterlimit:10;stroke-width:2px;}.b{fill:#ff6f3d;}</style></defs><g transform="translate(-122.533 -156.971)"><path class="a" d="M151.548,169.392a6.769,6.769,0,0,0-4.139-6.238,6.685,6.685,0,0,0-9.93-4.052,6.249,6.249,0,0,0-9.806,4.509,6.631,6.631,0,0,0,1.13,12.635,6.682,6.682,0,0,0,8.349,2.3,6.943,6.943,0,0,0,10.128-2.867A6.768,6.768,0,0,0,151.548,169.392Z" transform="translate(0 0)"/><g transform="translate(130.085 165.834)"><path class="b" d="M303.889,273.268V272.5l1.189-1.218a5.022,5.022,0,0,0,.5-.562.649.649,0,0,0,.137-.368.38.38,0,0,0-.109-.279.373.373,0,0,0-.281-.111c-.221,0-.438.168-.646.5l-.04.064-.845-.5.043-.067a2.294,2.294,0,0,1,.634-.677,1.581,1.581,0,0,1,.891-.235,1.448,1.448,0,0,1,.955.345,1.181,1.181,0,0,1,.417.95,1.277,1.277,0,0,1-.166.627,3.928,3.928,0,0,1-.589.736l-.592.615h1.467v.951Z" transform="translate(-291.185 -264.839)"/><path class="b" d="M246.91,227.752a3.783,3.783,0,0,0-5.187,0,3.633,3.633,0,0,0,0,5.117,3.784,3.784,0,0,0,5.187,0,3.633,3.633,0,0,0,0-5.117Zm-1.123,4.143a1.976,1.976,0,0,1-2.932,0,2.255,2.255,0,0,1-.6-1.58,2.278,2.278,0,0,1,.6-1.585,1.967,1.967,0,0,1,2.932,0,2.279,2.279,0,0,1,.6,1.585A2.256,2.256,0,0,1,245.787,231.9Z" transform="translate(-235.825 -226.723)"/><path class="b" d="M181.884,227.756a3.564,3.564,0,0,1,2.589-1.034,3.669,3.669,0,0,1,2.862,1.3l-.964,1.093a2.259,2.259,0,0,0-1.829-.914,2.131,2.131,0,0,0-1.5.571,1.991,1.991,0,0,0-.621,1.54,2.1,2.1,0,0,0,.586,1.555,1.937,1.937,0,0,0,1.421.586,2.288,2.288,0,0,0,1.869-.9l.993,1.023a3.748,3.748,0,0,1-5.431.318,3.671,3.671,0,0,1,.02-5.138Z" transform="translate(-182.825 -226.722)"/></g></g></svg>