<svg xmlns="http://www.w3.org/2000/svg" width="24.273" height="31.983" viewBox="0 0 24.273 31.983"><defs><style>.a{fill:#ff6f3d;stroke:#ff6f3d;fill-rule:evenodd;}</style></defs><g transform="translate(0.512 0.5)"><path class="a" d="M11.63,0c10.443,0,15.232,23.2,8.511,24.363a47.089,47.089,0,0,1-5.767.63v-1.1a45.951,45.951,0,0,0,5.58-.612,1.66,1.66,0,0,0,.538-.19c1.316-.744,1.609-3.227,1.652-4.558a23.272,23.272,0,0,0-1.455-8.3c-1.215-3.368-3.68-7.785-7.36-8.888a5.869,5.869,0,0,0-3.367-.007C6.274,2.432,3.8,6.87,2.579,10.238A23.427,23.427,0,0,0,1.1,18.547c.038,1.314.319,3.809,1.624,4.542a1.618,1.618,0,0,0,.555.188c1.856.282,3.722.483,5.592.589v1.1q-2.836-.158-5.757-.6C-3.624,23.337,1.186,0,11.63,0" transform="translate(0)"/><path class="a" d="M354.982,175.035a.558.558,0,1,1,1.109,0c0,2.808,0,21.455,0,24.263a.558.558,0,1,1-1.109,0c0-2.808,0-21.455,0-24.263" transform="translate(-343.846 -168.939)"/><path class="a" d="M378.8,453.3a.558.558,0,1,1,.733.832l-6.864,6.048v-1.478l6.131-5.4" transform="translate(-360.976 -438.908)"/><path class="a" d="M147.249,453.3a.558.558,0,1,0-.733.832l6.864,6.048v-1.478l-6.131-5.4" transform="translate(-141.689 -438.908)"/><path class="a" d="M377.044,297.635a.558.558,0,1,1,.733.832l-5.118,4.51V301.5l4.385-3.864" transform="translate(-360.969 -288.124)"/><path class="a" d="M202.888,297.635a.558.558,0,1,0-.733.832l5.118,4.51V301.5l-4.385-3.864" transform="translate(-195.583 -288.124)"/></g></svg>