<svg xmlns="http://www.w3.org/2000/svg"  viewBox="0 0 150.187 29.835"><defs><style>.a{fill:#ff6f3d;}</style></defs><g transform="translate(-98 -152)"><path class="a" d="M1243.757,534.28c-2.562-2.014-3.562-5.646-3.22-9.138.437-4.453,3.15-8.752,7.913-8.865,4.948-.119,7.866,4.394,8.28,8.98a11.952,11.952,0,0,1-1.1,6.4,7.938,7.938,0,0,1-11.871,2.622m-8.895-10.067a16.763,16.763,0,0,0,2.3,11.008,12.784,12.784,0,0,0,5.5,4.7,14.573,14.573,0,0,0,12.873-.414,13.208,13.208,0,0,0,5.7-6.408,17.074,17.074,0,0,0-1.321-15.626,13.635,13.635,0,0,0-12.555-6.025c-6.675.664-11.623,5.961-12.492,12.763" transform="translate(-1068.986 -359.386)"/><path class="a" d="M982.009,518.939v8.629h5.5a6.221,6.221,0,0,0,3.641-.9,3.871,3.871,0,0,0,1.472-3.4,4,4,0,0,0-1.3-3.233,5.757,5.757,0,0,0-3.778-1.1Zm0,20.486a3.68,3.68,0,0,1-3.671,3.671H975.9V517.6a3.68,3.68,0,0,1,3.671-3.671h8.47c3.245,0,5.975.786,7.843,2.426a9.841,9.841,0,0,1,.044,13.567,8.525,8.525,0,0,1-2.146,1.392l7.209,11.785h-4.612a4.536,4.536,0,0,1-3.965-2.221l-5.2-8.5h-5.2Z" transform="translate(-877.898 -361.262)"/><path class="a" d="M1460.007,518.939v8.629h5.5a6.222,6.222,0,0,0,3.641-.9,3.872,3.872,0,0,0,1.472-3.4,4,4,0,0,0-1.3-3.233,5.757,5.757,0,0,0-3.778-1.1Zm0,20.486a3.68,3.68,0,0,1-3.671,3.671h-2.44V517.6a3.68,3.68,0,0,1,3.671-3.671h8.471c3.245,0,5.975.786,7.843,2.426a9.841,9.841,0,0,1,.044,13.567,8.524,8.524,0,0,1-2.146,1.392l7.209,11.785h-4.612a4.536,4.536,0,0,1-3.965-2.221l-5.2-8.5h-5.2Z" transform="translate(-1230.801 -361.262)"/><path class="a" d="M1375.383,512.559h-2.614a3.454,3.454,0,0,0-3.407,3.488V529.9c0,2.173-.257,3.947-1.125,5.185s-2.354,1.94-4.8,1.94c-2.48,0-4.041-.653-4.984-1.876s-1.257-2.992-1.257-5.25V512.559h-2.613a3.454,3.454,0,0,0-3.407,3.488V529.9c0,4.127.94,7.176,2.929,9.186s5.039,3,9.255,3c4.134,0,7.143-.964,9.113-2.953s2.91-5.018,2.91-9.146Z" transform="translate(-1154.964 -360.252)"/><path class="a" d="M1164.283,517.573c0-5.208,15.543-4.214,19.333-4.214v1.221c0,2.372-1.322,3.488-3.173,3.551-1.968.065-8.308-.07-10.009.492v5.316l8.87-.32.051,1.084a3.7,3.7,0,0,1-3.512,3.849l-5.428.166c-.028,4.631,0,9.27,0,13.9h-2.465a3.689,3.689,0,0,1-3.683-3.683c0-7.129.019-14.242.019-21.364" transform="translate(-1016.967 -360.787)"/><path class="a" d="M1075.511,517.573c0-5.208,16.167-4.214,19.955-4.214v1.221c0,2.372-1.32,3.488-3.173,3.551-1.968.065-8.928-.07-10.631.492v7.192l9.494-.321.049,1.086a3.692,3.692,0,0,1-3.512,3.847l-6.05.168c0,1.521.009,2.78.009,6.617,1.06.349,5.627.192,7.587.218,1.189.016,2.976.014,3.717.037,1.851.059,3.173,1.179,3.173,3.551v1.6h-16.951a3.691,3.691,0,0,1-3.685-3.685l.007-7.073v-.272c-.007-3.652-.016-6.682-.016-11.385a3.6,3.6,0,0,1,.028-.456Z" transform="translate(-951.421 -360.787)"/></g></svg>